<svg width="601" height="942" viewBox="0 0 601 942" fill="none" xmlns="http://www.w3.org/2000/svg">
<mask id="mask0_218_1203" style="mask-type:alpha" maskUnits="userSpaceOnUse" x="0" y="0" width="601" height="942">
<rect x="0.0898438" width="600.91" height="941.763" fill="#D9D9D9"/>
</mask>
<g mask="url(#mask0_218_1203)">
<g filter="url(#filter0_d_218_1203)">
<rect x="649.238" y="-43.7562" width="199.817" height="224.844" transform="rotate(138.83 649.238 -43.7562)" fill="#EEEEEE"/>
</g>
<g filter="url(#filter1_d_218_1203)">
<rect x="709.086" y="-10.3392" width="199.817" height="224.844" transform="rotate(139.356 709.086 -10.3392)" fill="#F5F5F5"/>
</g>
<g filter="url(#filter2_d_218_1203)">
<rect x="145.258" y="873.267" width="77" height="90" transform="rotate(0.57588 145.258 873.267)" fill="#FF7269"/>
<rect x="145.258" y="873.267" width="77" height="20.7624" transform="rotate(0.57588 145.258 873.267)" fill="#FF8D86"/>
</g>
<g filter="url(#filter3_d_218_1203)">
<path d="M76.3048 724.539L109.302 820.253C79.9652 834.285 64.8376 832.828 39.3171 818.783L76.3048 724.539Z" fill="#FF7269"/>
<path d="M76.3029 724.539L83.8391 746.702L67.8426 746.366L76.3029 724.539Z" fill="#4F4F4F"/>
<rect x="39.3398" y="817.783" width="23" height="288" transform="rotate(1.20352 39.3398 817.783)" fill="#FCA735"/>
<rect x="86.3281" y="818.77" width="23" height="288" transform="rotate(1.20352 86.3281 818.77)" fill="#FCA735"/>
<path d="M62.332 818.266L86.3267 818.77L80.2776 1106.71L56.2829 1106.2L62.332 818.266Z" fill="#F1961D"/>
</g>
<g filter="url(#filter4_d_218_1203)">
<path d="M572.253 655.6V631.547C572.253 590.919 605.189 557.983 645.816 557.983V557.983" stroke="#424242" stroke-width="15"/>
</g>
<g filter="url(#filter5_d_218_1203)">
<rect x="463.93" y="655.443" width="216.061" height="341.189" rx="108.03" fill="#D9D9D9"/>
</g>
<path d="M566.52 653.112C509.861 653.112 463.93 699.043 463.93 755.702V782.126H566.52V653.112Z" fill="#EAEAEA"/>
<path d="M566.129 654.666C510.329 654.666 465.094 700.044 465.094 756.02V782.126" stroke="#D9D9D9" stroke-width="5"/>
<path d="M679.988 755.702C679.988 699.043 634.057 653.112 577.398 653.112V782.515H679.988V755.702Z" fill="#C6C6C6"/>
<rect x="556.027" y="724.614" width="28.7563" height="71.5021" rx="14.3781" fill="#545454"/>
<rect x="556.027" y="738.603" width="28.7563" height="8.54916" fill="#4D4D4D"/>
<rect x="556.027" y="754.147" width="28.7563" height="8.54916" fill="#4D4D4D"/>
<rect x="556.027" y="770.468" width="28.7563" height="8.54916" fill="#4D4D4D"/>
<g filter="url(#filter6_d_218_1203)">
<rect x="-587.477" y="44.8502" width="740.522" height="438.485" rx="41" transform="rotate(-30 -587.477 44.8502)" fill="#585858"/>
<rect x="-586.111" y="45.2162" width="738.522" height="436.485" rx="40" transform="rotate(-30 -586.111 45.2162)" stroke="#727272" stroke-width="2"/>
</g>
<path d="M-55.728 228.29L-66.0374 209.35L-66.9157 209.828L-56.5943 228.79L-133.837 273.386C-138.859 276.286 -145.28 274.565 -148.18 269.543L-199.442 180.754C-202.341 175.732 -200.621 169.31 -195.599 166.411L-40.2697 76.7317C-35.2477 73.8322 -28.8259 75.5529 -25.9264 80.575L25.3357 169.364C28.2352 174.386 26.5145 180.807 21.4925 183.707L-55.728 228.29Z" fill="#666666" stroke="#4F4F4F"/>
<rect x="-32.0234" y="24.6613" width="35" height="29" rx="6" transform="rotate(-30 -32.0234 24.6613)" fill="#515151"/>
<rect x="-33.5234" y="22.0632" width="35" height="29" rx="6" transform="rotate(-30 -33.5234 22.0632)" fill="#666666"/>
<rect x="2.61719" y="4.66132" width="35" height="29" rx="6" transform="rotate(-30 2.61719 4.66132)" fill="#515151"/>
<rect x="37.2578" y="-15.3387" width="35" height="29" rx="6" transform="rotate(-30 37.2578 -15.3387)" fill="#515151"/>
<rect x="1.11719" y="2.0632" width="35" height="29" rx="6" transform="rotate(-30 1.11719 2.0632)" fill="#666666"/>
<rect x="35.7578" y="-17.9368" width="35" height="29" rx="6" transform="rotate(-30 35.7578 -17.9368)" fill="#666666"/>
<rect x="-25.7734" y="-20.5156" width="35" height="29" rx="6" transform="rotate(-30 -25.7734 -20.5156)" fill="#515151"/>
<rect x="-27.2734" y="-23.1137" width="35" height="29" rx="6" transform="rotate(-30 -27.2734 -23.1137)" fill="#666666"/>
</g>
<defs>
<filter id="filter0_d_218_1203" x="338.309" y="-221.509" width="323.43" height="325.792" filterUnits="userSpaceOnUse" color-interpolation-filters="sRGB">
<feFlood flood-opacity="0" result="BackgroundImageFix"/>
<feColorMatrix in="SourceAlpha" type="matrix" values="0 0 0 0 0 0 0 0 0 0 0 0 0 0 0 0 0 0 127 0" result="hardAlpha"/>
<feOffset dy="4"/>
<feGaussianBlur stdDeviation="6.25"/>
<feComposite in2="hardAlpha" operator="out"/>
<feColorMatrix type="matrix" values="0 0 0 0 0 0 0 0 0 0 0 0 0 0 0 0 0 0 0.11 0"/>
<feBlend mode="normal" in2="BackgroundImageFix" result="effect1_dropShadow_218_1203"/>
<feBlend mode="normal" in="SourceGraphic" in2="effect1_dropShadow_218_1203" result="shape"/>
</filter>
<filter id="filter1_d_218_1203" x="377.916" y="-210.045" width="364.27" height="366.957" filterUnits="userSpaceOnUse" color-interpolation-filters="sRGB">
<feFlood flood-opacity="0" result="BackgroundImageFix"/>
<feColorMatrix in="SourceAlpha" type="matrix" values="0 0 0 0 0 0 0 0 0 0 0 0 0 0 0 0 0 0 127 0" result="hardAlpha"/>
<feOffset dy="4"/>
<feGaussianBlur stdDeviation="16.55"/>
<feComposite in2="hardAlpha" operator="out"/>
<feColorMatrix type="matrix" values="0 0 0 0 0 0 0 0 0 0 0 0 0 0 0 0 0 0 0.06 0"/>
<feBlend mode="normal" in2="BackgroundImageFix" result="effect1_dropShadow_218_1203"/>
<feBlend mode="normal" in="SourceGraphic" in2="effect1_dropShadow_218_1203" result="shape"/>
</filter>
<filter id="filter2_d_218_1203" x="131.553" y="854.867" width="119.101" height="171.568" filterUnits="userSpaceOnUse" color-interpolation-filters="sRGB">
<feFlood flood-opacity="0" result="BackgroundImageFix"/>
<feColorMatrix in="SourceAlpha" type="matrix" values="0 0 0 0 0 0 0 0 0 0 0 0 0 0 0 0 0 0 127 0" result="hardAlpha"/>
<feOffset dx="8" dy="2"/>
<feGaussianBlur stdDeviation="10.2"/>
<feComposite in2="hardAlpha" operator="out"/>
<feColorMatrix type="matrix" values="0 0 0 0 0 0 0 0 0 0.0288313 0 0 0 0 0.720833 0 0 0 0.25 0"/>
<feBlend mode="normal" in2="BackgroundImageFix" result="effect1_dropShadow_218_1203"/>
<feBlend mode="normal" in="SourceGraphic" in2="effect1_dropShadow_218_1203" result="shape"/>
</filter>
<filter id="filter3_d_218_1203" x="8.48906" y="686.739" width="125.635" height="432.251" filterUnits="userSpaceOnUse" color-interpolation-filters="sRGB">
<feFlood flood-opacity="0" result="BackgroundImageFix"/>
<feColorMatrix in="SourceAlpha" type="matrix" values="0 0 0 0 0 0 0 0 0 0 0 0 0 0 0 0 0 0 127 0" result="hardAlpha"/>
<feOffset dy="-13"/>
<feGaussianBlur stdDeviation="12.4"/>
<feComposite in2="hardAlpha" operator="out"/>
<feColorMatrix type="matrix" values="0 0 0 0 0.541667 0 0 0 0 0.0325 0 0 0 0 0 0 0 0 0.25 0"/>
<feBlend mode="normal" in2="BackgroundImageFix" result="effect1_dropShadow_218_1203"/>
<feBlend mode="normal" in="SourceGraphic" in2="effect1_dropShadow_218_1203" result="shape"/>
</filter>
<filter id="filter4_d_218_1203" x="527.954" y="529.683" width="130.662" height="154.717" filterUnits="userSpaceOnUse" color-interpolation-filters="sRGB">
<feFlood flood-opacity="0" result="BackgroundImageFix"/>
<feColorMatrix in="SourceAlpha" type="matrix" values="0 0 0 0 0 0 0 0 0 0 0 0 0 0 0 0 0 0 127 0" result="hardAlpha"/>
<feOffset dx="-12" dy="4"/>
<feGaussianBlur stdDeviation="12.4"/>
<feComposite in2="hardAlpha" operator="out"/>
<feColorMatrix type="matrix" values="0 0 0 0 0 0 0 0 0 0 0 0 0 0 0 0 0 0 0.25 0"/>
<feBlend mode="normal" in2="BackgroundImageFix" result="effect1_dropShadow_218_1203"/>
<feBlend mode="normal" in="SourceGraphic" in2="effect1_dropShadow_218_1203" result="shape"/>
</filter>
<filter id="filter5_d_218_1203" x="380.13" y="558.643" width="361.663" height="486.789" filterUnits="userSpaceOnUse" color-interpolation-filters="sRGB">
<feFlood flood-opacity="0" result="BackgroundImageFix"/>
<feColorMatrix in="SourceAlpha" type="matrix" values="0 0 0 0 0 0 0 0 0 0 0 0 0 0 0 0 0 0 127 0" result="hardAlpha"/>
<feOffset dx="-11" dy="-24"/>
<feGaussianBlur stdDeviation="36.4"/>
<feComposite in2="hardAlpha" operator="out"/>
<feColorMatrix type="matrix" values="0 0 0 0 0 0 0 0 0 0 0 0 0 0 0 0 0 0 0.25 0"/>
<feBlend mode="normal" in2="BackgroundImageFix" result="effect1_dropShadow_218_1203"/>
<feBlend mode="normal" in="SourceGraphic" in2="effect1_dropShadow_218_1203" result="shape"/>
</filter>
<filter id="filter6_d_218_1203" x="-590.377" y="-325.311" width="866.355" height="755.8" filterUnits="userSpaceOnUse" color-interpolation-filters="sRGB">
<feFlood flood-opacity="0" result="BackgroundImageFix"/>
<feColorMatrix in="SourceAlpha" type="matrix" values="0 0 0 0 0 0 0 0 0 0 0 0 0 0 0 0 0 0 127 0" result="hardAlpha"/>
<feOffset dy="3"/>
<feGaussianBlur stdDeviation="8.95"/>
<feComposite in2="hardAlpha" operator="out"/>
<feColorMatrix type="matrix" values="0 0 0 0 0 0 0 0 0 0 0 0 0 0 0 0 0 0 0.31 0"/>
<feBlend mode="normal" in2="BackgroundImageFix" result="effect1_dropShadow_218_1203"/>
<feBlend mode="normal" in="SourceGraphic" in2="effect1_dropShadow_218_1203" result="shape"/>
</filter>
</defs>
</svg>
