<svg width="1350" height="756" viewBox="0 0 1350 756" fill="none" xmlns="http://www.w3.org/2000/svg">
<mask id="mask0_216_930" style="mask-type:alpha" maskUnits="userSpaceOnUse" x="0" y="0" width="1350" height="756">
<rect y="0.0518799" width="1350" height="755" fill="#D9D9D9"/>
</mask>
<g mask="url(#mask0_216_930)">
<g filter="url(#filter0_d_216_930)">
<rect x="-472" y="47.313" width="740.522" height="438.485" rx="41" transform="rotate(-30 -472 47.313)" fill="#585858"/>
<rect x="-470.634" y="47.6791" width="738.522" height="436.485" rx="40" transform="rotate(-30 -470.634 47.6791)" stroke="#727272" stroke-width="2"/>
</g>
<path d="M59.7485 230.753L49.4392 211.813L48.5608 212.291L58.8822 231.253L-18.36 275.849C-23.3821 278.749 -29.8038 277.028 -32.7033 272.006L-83.9654 183.217C-86.8649 178.195 -85.1442 171.773 -80.1222 168.874L75.2068 79.1946C80.2289 76.2951 86.6506 78.0158 89.5501 83.0379L140.812 171.827C143.712 176.849 141.991 183.27 136.969 186.17L59.7485 230.753Z" fill="#666666" stroke="#4F4F4F"/>
<rect x="-167.496" y="172.009" width="284.839" height="29.144" rx="6" transform="rotate(-30 -167.496 172.009)" fill="#515151"/>
<rect x="-169.117" y="169.2" width="284.839" height="29.144" rx="6" transform="rotate(-30 -169.117 169.2)" fill="#666666"/>
<rect x="83.4531" y="27.1242" width="35" height="29" rx="6" transform="rotate(-30 83.4531 27.1242)" fill="#515151"/>
<rect x="81.9531" y="24.5261" width="35" height="29" rx="6" transform="rotate(-30 81.9531 24.5261)" fill="#666666"/>
<rect x="118.094" y="7.12421" width="35" height="29" rx="6" transform="rotate(-30 118.094 7.12421)" fill="#515151"/>
<rect x="152.734" y="-12.8758" width="35" height="29" rx="6" transform="rotate(-30 152.734 -12.8758)" fill="#515151"/>
<rect x="116.594" y="4.52612" width="35" height="29" rx="6" transform="rotate(-30 116.594 4.52612)" fill="#666666"/>
<rect x="151.234" y="-15.4739" width="35" height="29" rx="6" transform="rotate(-30 151.234 -15.4739)" fill="#666666"/>
<rect x="-14.2227" y="41.9474" width="35" height="29" rx="6" transform="rotate(-30 -14.2227 41.9474)" fill="#515151"/>
<rect x="-17.3633" y="4.5025" width="35" height="29" rx="6" transform="rotate(-30 -17.3633 4.5025)" fill="#515151"/>
<rect x="20.418" y="21.9473" width="35" height="29" rx="6" transform="rotate(-30 20.418 21.9473)" fill="#515151"/>
<rect x="17.2773" y="-15.4976" width="35" height="29" rx="6" transform="rotate(-30 17.2773 -15.4976)" fill="#515151"/>
<rect x="-15.7227" y="39.3492" width="35" height="29" rx="6" transform="rotate(-30 -15.7227 39.3492)" fill="#666666"/>
<rect x="-18.8633" y="1.90436" width="35" height="29" rx="6" transform="rotate(-30 -18.8633 1.90436)" fill="#666666"/>
<rect x="18.918" y="19.3492" width="35" height="29" rx="6" transform="rotate(-30 18.918 19.3492)" fill="#666666"/>
<rect x="15.7773" y="-18.0956" width="35" height="29" rx="6" transform="rotate(-30 15.7773 -18.0956)" fill="#666666"/>
<rect x="55.0586" y="1.94727" width="35" height="29" rx="6" transform="rotate(-30 55.0586 1.94727)" fill="#515151"/>
<rect x="53.5586" y="-0.650757" width="35" height="29" rx="6" transform="rotate(-30 53.5586 -0.650757)" fill="#666666"/>
<rect x="89.7031" y="-18.0527" width="35" height="29" rx="6" transform="rotate(-30 89.7031 -18.0527)" fill="#515151"/>
<rect x="88.2031" y="-20.6508" width="35" height="29" rx="6" transform="rotate(-30 88.2031 -20.6508)" fill="#666666"/>
<g filter="url(#filter1_d_216_930)">
<rect x="1695.23" y="113.041" width="433.262" height="487.526" transform="rotate(138.83 1695.23 113.041)" fill="#EEEEEE"/>
</g>
<g filter="url(#filter2_d_216_930)">
<rect x="1825" y="185.499" width="433.262" height="487.526" transform="rotate(139.356 1825 185.499)" fill="#F5F5F5"/>
</g>
<g filter="url(#filter3_d_216_930)">
<path d="M1266.5 466.254V233.592C1266.5 223.442 1274.89 215.3 1285.03 215.599L1291.8 215.799C1313.67 216.446 1317.54 184.861 1296.15 180.217L1275.16 175.66C1254.3 171.128 1257.28 140.487 1278.63 140.073L1287.85 139.894C1297.65 139.704 1305.5 131.703 1305.5 121.898V0.0518799" stroke="#424242" stroke-width="15"/>
</g>
<g filter="url(#filter4_d_216_930)">
<rect x="1128.5" y="466.051" width="278" height="439" rx="132" fill="#D9D9D9"/>
</g>
<path d="M1260.5 463.052C1187.6 463.052 1128.5 522.15 1128.5 595.052V629.052H1260.5V463.052Z" fill="#EAEAEA"/>
<path d="M1260 465.052C1188.2 465.052 1130 523.438 1130 595.462V629.052" stroke="#D9D9D9" stroke-width="5"/>
<path d="M1406.5 595.052C1406.5 522.15 1347.4 463.052 1274.5 463.052V629.552H1406.5V595.052Z" fill="#C6C6C6"/>
<rect x="1247" y="555.052" width="37" height="92" rx="18.5" fill="#545454"/>
<rect x="1247" y="573.052" width="37" height="11" fill="#4D4D4D"/>
<rect x="1247" y="593.052" width="37" height="11" fill="#4D4D4D"/>
<rect x="1247" y="614.052" width="37" height="11" fill="#4D4D4D"/>
<g filter="url(#filter5_d_216_930)">
<rect x="-20" y="632.66" width="77" height="90" transform="rotate(-40.5802 -20 632.66)" fill="#FF7269"/>
<rect x="-20" y="632.66" width="77" height="20.7624" transform="rotate(-40.5802 -20 632.66)" fill="#FF8D86"/>
<rect x="38.5469" y="701.015" width="77" height="40" transform="rotate(-40.5802 38.5469 701.015)" fill="#0198FF"/>
</g>
<g filter="url(#filter6_d_216_930)">
<path d="M85.1349 523.527L172.97 573.877C160.116 603.748 147.767 612.607 119.309 618.827L85.1349 523.527Z" fill="#FF7269"/>
<path d="M85.1365 523.527L105.396 535.255L93.1313 545.529L85.1365 523.527Z" fill="#4F4F4F"/>
<rect x="118.668" y="618.061" width="23" height="288" transform="rotate(-39.9526 118.668 618.061)" fill="#FCA735"/>
<rect x="154.695" y="587.88" width="23" height="288" transform="rotate(-39.9526 154.695 587.88)" fill="#FCA735"/>
<path d="M136.297 603.291L154.695 587.88L339.635 808.653L321.237 824.065L136.297 603.291Z" fill="#F1961D"/>
</g>
</g>
<defs>
<filter id="filter0_d_216_930" x="-474.9" y="-322.848" width="866.355" height="755.8" filterUnits="userSpaceOnUse" color-interpolation-filters="sRGB">
<feFlood flood-opacity="0" result="BackgroundImageFix"/>
<feColorMatrix in="SourceAlpha" type="matrix" values="0 0 0 0 0 0 0 0 0 0 0 0 0 0 0 0 0 0 127 0" result="hardAlpha"/>
<feOffset dy="3"/>
<feGaussianBlur stdDeviation="8.95"/>
<feComposite in2="hardAlpha" operator="out"/>
<feColorMatrix type="matrix" values="0 0 0 0 0 0 0 0 0 0 0 0 0 0 0 0 0 0 0.31 0"/>
<feBlend mode="normal" in2="BackgroundImageFix" result="effect1_dropShadow_216_930"/>
<feBlend mode="normal" in="SourceGraphic" in2="effect1_dropShadow_216_930" result="shape"/>
</filter>
<filter id="filter1_d_216_930" x="1035.65" y="-262.448" width="672.078" height="677.204" filterUnits="userSpaceOnUse" color-interpolation-filters="sRGB">
<feFlood flood-opacity="0" result="BackgroundImageFix"/>
<feColorMatrix in="SourceAlpha" type="matrix" values="0 0 0 0 0 0 0 0 0 0 0 0 0 0 0 0 0 0 127 0" result="hardAlpha"/>
<feOffset dy="4"/>
<feGaussianBlur stdDeviation="6.25"/>
<feComposite in2="hardAlpha" operator="out"/>
<feColorMatrix type="matrix" values="0 0 0 0 0 0 0 0 0 0 0 0 0 0 0 0 0 0 0.11 0"/>
<feBlend mode="normal" in2="BackgroundImageFix" result="effect1_dropShadow_216_930"/>
<feBlend mode="normal" in="SourceGraphic" in2="effect1_dropShadow_216_930" result="shape"/>
</filter>
<filter id="filter2_d_216_930" x="1145.6" y="-213.524" width="712.501" height="718.329" filterUnits="userSpaceOnUse" color-interpolation-filters="sRGB">
<feFlood flood-opacity="0" result="BackgroundImageFix"/>
<feColorMatrix in="SourceAlpha" type="matrix" values="0 0 0 0 0 0 0 0 0 0 0 0 0 0 0 0 0 0 127 0" result="hardAlpha"/>
<feOffset dy="4"/>
<feGaussianBlur stdDeviation="16.55"/>
<feComposite in2="hardAlpha" operator="out"/>
<feColorMatrix type="matrix" values="0 0 0 0 0 0 0 0 0 0 0 0 0 0 0 0 0 0 0.06 0"/>
<feBlend mode="normal" in2="BackgroundImageFix" result="effect1_dropShadow_216_930"/>
<feBlend mode="normal" in="SourceGraphic" in2="effect1_dropShadow_216_930" result="shape"/>
</filter>
<filter id="filter3_d_216_930" x="1216.67" y="-20.7481" width="113.975" height="515.802" filterUnits="userSpaceOnUse" color-interpolation-filters="sRGB">
<feFlood flood-opacity="0" result="BackgroundImageFix"/>
<feColorMatrix in="SourceAlpha" type="matrix" values="0 0 0 0 0 0 0 0 0 0 0 0 0 0 0 0 0 0 127 0" result="hardAlpha"/>
<feOffset dx="-12" dy="4"/>
<feGaussianBlur stdDeviation="12.4"/>
<feComposite in2="hardAlpha" operator="out"/>
<feColorMatrix type="matrix" values="0 0 0 0 0 0 0 0 0 0 0 0 0 0 0 0 0 0 0.25 0"/>
<feBlend mode="normal" in2="BackgroundImageFix" result="effect1_dropShadow_216_930"/>
<feBlend mode="normal" in="SourceGraphic" in2="effect1_dropShadow_216_930" result="shape"/>
</filter>
<filter id="filter4_d_216_930" x="1044.7" y="369.251" width="423.6" height="584.6" filterUnits="userSpaceOnUse" color-interpolation-filters="sRGB">
<feFlood flood-opacity="0" result="BackgroundImageFix"/>
<feColorMatrix in="SourceAlpha" type="matrix" values="0 0 0 0 0 0 0 0 0 0 0 0 0 0 0 0 0 0 127 0" result="hardAlpha"/>
<feOffset dx="-11" dy="-24"/>
<feGaussianBlur stdDeviation="36.4"/>
<feComposite in2="hardAlpha" operator="out"/>
<feColorMatrix type="matrix" values="0 0 0 0 0 0 0 0 0 0 0 0 0 0 0 0 0 0 0.25 0"/>
<feBlend mode="normal" in2="BackgroundImageFix" result="effect1_dropShadow_216_930"/>
<feBlend mode="normal" in="SourceGraphic" in2="effect1_dropShadow_216_930" result="shape"/>
</filter>
<filter id="filter5_d_216_930" x="-32.4" y="564.171" width="183.847" height="189.624" filterUnits="userSpaceOnUse" color-interpolation-filters="sRGB">
<feFlood flood-opacity="0" result="BackgroundImageFix"/>
<feColorMatrix in="SourceAlpha" type="matrix" values="0 0 0 0 0 0 0 0 0 0 0 0 0 0 0 0 0 0 127 0" result="hardAlpha"/>
<feOffset dx="8" dy="2"/>
<feGaussianBlur stdDeviation="10.2"/>
<feComposite in2="hardAlpha" operator="out"/>
<feColorMatrix type="matrix" values="0 0 0 0 0 0 0 0 0 0.0288313 0 0 0 0 0.720833 0 0 0 0.25 0"/>
<feBlend mode="normal" in2="BackgroundImageFix" result="effect1_dropShadow_216_930"/>
<feBlend mode="normal" in="SourceGraphic" in2="effect1_dropShadow_216_930" result="shape"/>
</filter>
<filter id="filter6_d_216_930" x="60.3367" y="485.727" width="321.729" height="364.907" filterUnits="userSpaceOnUse" color-interpolation-filters="sRGB">
<feFlood flood-opacity="0" result="BackgroundImageFix"/>
<feColorMatrix in="SourceAlpha" type="matrix" values="0 0 0 0 0 0 0 0 0 0 0 0 0 0 0 0 0 0 127 0" result="hardAlpha"/>
<feOffset dy="-13"/>
<feGaussianBlur stdDeviation="12.4"/>
<feComposite in2="hardAlpha" operator="out"/>
<feColorMatrix type="matrix" values="0 0 0 0 0.541667 0 0 0 0 0.0325 0 0 0 0 0 0 0 0 0.25 0"/>
<feBlend mode="normal" in2="BackgroundImageFix" result="effect1_dropShadow_216_930"/>
<feBlend mode="normal" in="SourceGraphic" in2="effect1_dropShadow_216_930" result="shape"/>
</filter>
</defs>
</svg>
